<svg width="196" height="57" viewBox="0 0 196 57" fill="none" xmlns="http://www.w3.org/2000/svg">
<path d="M57.7177 33.7076C57.6266 33.5684 57.5406 33.4368 57.4393 33.2977C57.4368 32.288 57.4014 31.2177 57.3255 30.2131C57.0927 27.627 56.5891 25.0536 55.7237 22.6016C55.5593 22.1487 55.3821 21.7008 55.1873 21.2605C58.745 13.1025 57.7607 5.18988 57.748 5.10385C57.4267 2.95047 56.5006 1.61188 54.995 1.13111C53.0593 0.513687 50.2708 1.34113 46.7106 3.59066C44.1448 5.21266 41.6473 7.30784 40.3037 8.6616C39.3168 8.15299 38.2895 7.72029 37.2369 7.36857C35.1746 6.68282 33.0111 6.30326 30.8376 6.24506V6.23747C27.3001 6.17168 23.7525 6.99913 20.6149 8.62618C19.2738 7.26735 16.7864 5.16964 14.2282 3.54259C10.673 1.28293 7.88962 0.445366 5.95136 1.05772C4.44326 1.53344 3.51461 2.8695 3.18313 5.03047C3.17301 5.10891 2.16592 13.0088 5.69073 21.1694C4.98223 22.7206 4.53941 24.3982 4.1472 26.0531C3.76765 27.8269 3.53232 29.6893 3.44629 31.5036C3.42099 32.0755 3.41846 32.6474 3.41087 33.2167C2.95287 33.8493 2.59609 34.5224 2.26461 35.2258C0.397195 39.2669 0.480697 44.0064 2.00145 48.141C2.0976 48.4118 2.22159 48.7104 2.32281 48.9811C2.37088 49.1026 2.41896 49.2291 2.50246 49.3303C3.06167 50.011 4.01309 49.6998 4.23324 49.0166C4.30915 49.1051 4.38 49.1912 4.44579 49.2696C4.84559 49.7681 5.70844 49.6188 5.91846 49.0166C6.17909 49.2772 6.45743 49.5201 6.74083 49.7605C13.1933 54.8314 22.4013 56.0536 30.3897 56.1118C38.0542 56.0638 46.1336 55.0567 52.7075 50.8258C53.4742 50.3071 54.2258 49.7453 54.8837 49.0899C55.076 49.6289 55.7997 49.8288 56.2374 49.4594C56.3487 49.3683 56.4474 49.2342 56.5411 49.1254C56.5411 49.1254 56.5664 49.0975 56.5714 49.0925C56.6018 49.1912 56.6448 49.2848 56.703 49.3683C57.1483 50.0237 58.1883 49.887 58.4515 49.1355C59.3371 46.9821 59.8989 44.6896 59.9596 42.354C60.0507 39.3428 59.3169 36.2734 57.7177 33.7076Z" fill="#F6A942"/>
<path d="M40.3138 8.65653C41.66 7.30276 44.1549 5.21264 46.7182 3.59318C50.2784 1.34111 53.0669 0.513669 55.0001 1.13109C56.5082 1.61187 57.4343 2.94792 57.7582 5.11142C57.7632 5.15191 58.0365 7.3559 57.781 10.6201L57.1585 8.23142C57.1585 8.23142 56.7789 1.23484 51.3892 3.41605C51.3842 3.41605 51.3791 3.41858 51.3741 3.42111C49.6939 3.98792 48.1554 5.04057 46.7131 6.02743C44.8811 7.27998 43.1503 8.68436 41.5512 10.2254C41.5512 10.2254 40.124 8.85643 39.499 8.25419C39.7748 8.38324 40.0456 8.51735 40.3138 8.65653Z" fill="#FFE3A4"/>
<path d="M17.9379 11.2452C17.9253 11.3186 18.0012 11.3743 18.0644 11.3388C18.9399 10.8454 23.9804 8.17329 30.4633 8.18341C36.9461 8.19353 41.9537 10.8808 42.8216 11.3743C42.9026 11.4198 43.0063 11.3768 43.0291 11.2882C43.0645 11.1465 43.0594 10.9365 42.8342 10.7265C41.4096 9.41319 36.9283 6.48298 30.4506 6.47286C24.6029 6.46527 20.2988 8.92988 18.5528 10.3798C18.1049 10.7518 17.9759 11.0655 17.9379 11.2452Z" fill="#FFE3A4"/>
<path d="M20.6148 8.62624C19.2737 7.26741 16.7863 5.1697 14.2281 3.54265C10.673 1.28299 7.88955 0.445427 5.95129 1.05779C4.44319 1.5335 3.51454 2.86703 3.18306 5.028C3.178 5.07101 2.89713 7.27247 3.14511 10.5367L3.77264 8.15305C3.77264 8.15305 4.17244 1.15647 9.5596 3.35287C9.56213 3.35287 9.56719 3.3554 9.57225 3.35793C11.2524 3.9298 12.7858 4.98751 14.2256 5.97943C16.0551 7.23704 17.7808 8.64648 19.3749 10.1926C19.3749 10.1926 20.8046 8.82867 21.4321 8.22896C21.1563 8.35548 20.8855 8.48707 20.6148 8.62624Z" fill="#FFE3A4"/>
<path d="M13.5656 14.1804C13.5656 14.1804 10.6506 15.3115 7.75332 18.8313C7.75332 18.8313 6.72093 15.1749 6.16172 9.7927C5.60504 4.41052 9.17539 5.18736 9.17539 5.18736C9.17539 5.18736 13.8616 7.13071 17.1182 10.3013C17.1182 10.3013 13.2012 9.80282 14.4335 12.0195C14.4335 12.0195 11.8373 13.0063 13.5656 14.1804ZM47.5054 14.2336C47.5054 14.2336 50.4179 15.3697 53.305 18.8996C53.305 18.8996 54.3476 15.2457 54.922 9.86355C55.4963 4.4839 51.9235 5.25062 51.9235 5.25062C51.9235 5.25062 47.2296 7.17879 43.9655 10.3418C43.9655 10.3418 47.885 9.85596 46.6426 12.0675C46.6426 12.0675 49.2387 13.062 47.5054 14.2336Z" fill="#F6E1BE"/>
<path d="M55.0228 48.4194L55.2177 48.9558C55.3518 49.3227 55.83 49.4062 56.0831 49.1102L57.0117 48.0145L56.8953 48.6926C56.8219 49.1152 57.1838 49.4872 57.6089 49.4239C57.8265 49.3936 58.0137 49.2493 58.0972 49.0469C60.3366 43.6824 59.6863 39.3504 58.7172 36.6175L56.8295 33.6772C56.8295 33.6772 52.9859 29.9575 45.5744 32.0274L39.3826 33.6494C39.3826 33.6494 35.8072 31.2961 30.4858 31.2885H30.3922C25.0708 31.2784 21.4878 33.6241 21.4878 33.6241L15.3011 31.9818C7.89722 29.8917 4.04094 33.5962 4.04094 33.5962L2.09508 36.6099C1.13354 39.3428 0.503478 43.6445 2.7049 48.9634C2.7884 49.1684 2.97565 49.3101 3.19326 49.343C3.61836 49.4062 3.98021 49.0368 3.90936 48.6117L3.79296 47.936L4.71907 49.0317C4.96958 49.3303 5.45035 49.2468 5.58446 48.8799L5.78183 48.346C5.78183 48.346 11.6422 55.7221 30.3796 55.7499H30.4023C49.1397 55.7778 55.0228 48.4194 55.0228 48.4194Z" fill="white"/>
<path d="M26.7537 34.5072C26.7461 34.5477 26.7385 34.5907 26.7335 34.6312C26.4678 36.6555 28.9906 38.905 30.939 38.5862C32.4091 38.3483 34.0918 36.534 34.15 35.0284C34.1551 34.8488 34.1475 34.6792 34.1272 34.5173L26.7537 34.5072Z" fill="#BBCEE1" fill-opacity="0.7"/>
<path d="M58.4566 45.7422C58.1934 46.4406 57.1534 46.5671 56.7106 45.9573C56.6499 45.8814 56.6068 45.7953 56.5765 45.7017C56.5714 45.7093 56.5486 45.7346 56.5486 45.7346C56.4525 45.8358 56.3538 45.9598 56.2425 46.0433C55.8047 46.3875 55.081 46.2002 54.8887 45.7017C54.2308 46.3115 53.4793 46.8328 52.7126 47.3136C46.1387 51.2484 38.0618 52.1821 30.3973 52.2251C22.4089 52.1694 13.2009 51.0333 6.7459 46.3166C6.4625 46.0965 6.18416 45.8687 5.92353 45.6283C5.71351 46.1876 4.85065 46.3267 4.45085 45.8611C4.38507 45.7903 4.31168 45.7093 4.2383 45.6283C4.01816 46.2635 3.06674 46.5519 2.51006 45.9168C2.42403 45.8232 2.37595 45.7068 2.32787 45.5929C2.22666 45.3424 2.10267 45.0641 2.00652 44.8135C1.67251 43.9684 1.40682 43.0979 1.21704 42.2123C1.26259 44.2012 1.67251 46.471 2.7049 48.9634C2.7884 49.1684 2.97565 49.3101 3.19326 49.343C3.61836 49.4062 3.98021 49.0368 3.90936 48.6117L3.79296 47.9361L4.71907 49.0317C4.96958 49.3303 5.45035 49.2468 5.58446 48.8799L5.78183 48.346C5.78183 48.346 11.6422 55.7221 30.3796 55.75H30.4023C49.1397 55.7778 55.0228 48.4194 55.0228 48.4194L55.2177 48.9558C55.3518 49.3227 55.83 49.4062 56.0831 49.1102L57.0117 48.0145L56.8953 48.6927C56.8219 49.1152 57.1838 49.4872 57.6089 49.4265C57.8265 49.3936 58.0137 49.2493 58.0972 49.0469C59.1398 46.5519 59.5547 44.2796 59.6053 42.2882C59.3422 43.4699 58.95 44.6263 58.4566 45.7422Z" fill="#BBCEE1"/>
<path d="M48.8034 15.352C48.0797 14.9497 47.2598 14.6258 46.4729 14.3854C46.7335 14.0337 47.2978 13.5377 47.4218 13.1252C47.4243 13.1101 47.4344 13.0873 47.4268 13.105C47.4319 13.1101 47.437 13.1177 47.4395 13.1328C47.0852 12.9253 46.1617 13.0746 45.7163 13.0999L45.9997 12.3585C46.1693 11.8474 46.4704 11.3008 46.2021 10.9719C45.2204 10.5872 43.9754 11.1768 42.9734 11.3894L42.7811 11.2426C39.1525 8.46676 34.5422 7.04973 29.9749 7.09275V6.59679C29.9749 6.59426 30.4759 7.10034 30.4759 7.09781C26.0655 7.08262 21.6601 8.52749 18.158 11.2047L17.9657 11.354C17.4369 11.2249 16.9384 11.0478 16.3969 10.9314C13.9349 10.4455 14.575 11.2705 15.2102 13.0544C14.8888 13.0291 14.1272 12.9329 13.7957 12.9937C13.5806 12.9987 13.4263 13.148 13.5072 13.0544C13.5654 13.2872 13.7679 13.5326 13.9627 13.7578L14.4258 14.3221L13.8134 14.5448C13.2466 14.7498 12.6621 15.0028 12.1231 15.2963L11.8018 14.8535C12.2927 14.4082 12.8088 14.0185 13.3681 13.644L13.2188 14.4335C12.3028 13.5048 12.113 12.2244 13.6565 11.9992C13.9602 11.9587 14.2183 11.9613 14.5194 11.9866L13.9931 12.6596C13.8412 12.2219 13.611 11.7487 13.6337 11.0883C13.7248 9.60038 15.5847 9.69401 16.5968 9.94958C17.0624 10.0457 17.5457 10.2051 18.0189 10.3342L17.5482 10.4076C21.2274 7.59124 25.8554 6.07805 30.4759 6.09577H30.9769V6.59679C30.9794 6.59932 30.481 6.09577 30.481 6.09577C35.0938 6.14637 39.7016 7.63425 43.3909 10.4455L42.9228 10.3722C43.396 10.2431 43.8793 10.0862 44.3474 9.99006C46.5994 9.45868 48.0114 10.319 46.941 12.7077L46.4172 12.0346C47.2447 11.9233 48.6212 12.1814 48.4086 13.2973C48.3302 13.7705 47.9911 14.1501 47.7077 14.4841L47.5635 13.6971C48.1227 14.0716 48.6338 14.4638 49.1247 14.9117L48.8034 15.352Z" fill="black"/>
<path d="M40.3748 9.1044C43.3328 6.02489 55.9948 -4.21314 57.3941 5.15949C57.3941 5.15949 58.4214 12.986 54.8384 21.1643M20.5468 9.07404C17.5989 5.98694 4.96733 -4.28905 3.5402 5.07852C3.5402 5.07852 2.4901 12.9025 6.0478 21.0884" stroke="black" stroke-width="2.06533" stroke-miterlimit="10"/>
<path d="M7.18628 19.4715C5.32139 23.9149 4.3472 28.6898 4.2637 33.5077C1.19436 37.7436 1.08808 43.6318 3.02635 48.384L3.12503 48.6547L3.17058 48.7762C3.22119 48.8875 3.39831 48.8597 3.41349 48.7382C3.34011 48.265 3.07695 46.7063 2.98839 46.2078C3.51724 46.8404 4.58506 48.0879 5.10631 48.7104C5.21512 48.4472 5.4884 47.6906 5.60226 47.387C14.3827 57.8198 45.2835 57.8021 54.6307 48.1056L55.2051 47.4604C55.3038 47.7514 55.5948 48.5282 55.6985 48.7863C56.2299 48.1815 57.2876 46.9011 57.8215 46.2888C57.7734 46.724 57.4571 48.2802 57.404 48.6825C57.3407 48.8951 57.49 48.9988 57.6191 48.8824C58.4769 46.805 59.0234 44.5833 59.0918 42.3363C59.2031 39.3428 58.3909 36.1697 56.6854 33.7278L56.5867 33.5912L56.5766 33.4166C56.4855 28.6645 55.5644 23.92 53.7046 19.5424L54.1677 19.2564C56.8954 23.3911 57.5432 28.5607 57.5811 33.4141L57.4723 33.1053C59.3752 35.8255 60.1899 39.0948 60.0963 42.3641C59.9875 44.8186 59.4612 47.2908 58.406 49.5049C57.8215 50.2818 56.5032 49.9174 56.3944 48.9584C56.3488 48.6016 56.483 48.2473 56.5184 47.931L57.3939 48.3409L56.8979 48.9255C56.7233 49.1304 56.5234 49.3911 56.3261 49.5682C55.7213 50.0616 54.8458 49.6846 54.6813 48.9508L54.5498 48.5914L55.4151 48.7332C54.6029 49.6441 53.7274 50.3096 52.7836 50.9397C41.827 58.3715 14.9292 58.4879 5.38971 48.6572L6.25257 48.5181L6.12099 48.8799C5.97423 49.6036 5.05571 49.9882 4.47372 49.4897C4.11441 49.1405 3.74244 48.6319 3.41096 48.26L4.28647 47.8526L4.38769 48.432C4.68627 49.5884 3.15793 50.3855 2.39376 49.4164C2.22169 49.2392 2.1888 48.9584 2.09264 48.7509C1.92564 48.1916 1.62705 47.6071 1.50053 47.0378C0.57948 43.9456 0.425127 40.5776 1.3057 37.4551C1.76369 35.8888 2.3811 34.4009 3.37807 33.0218L3.26673 33.3331C3.23637 29.6488 3.77281 25.9519 5.01775 22.4751C5.44032 21.3187 5.94639 20.1901 6.72322 19.183L7.18628 19.4715ZM43.2972 10.4025C45.8124 8.23649 54.3245 0.774315 55.2481 7.73041C55.5138 11.5311 54.8281 15.4102 53.5199 18.9654L53.0897 18.8364C53.8286 15.2154 54.7851 11.5387 54.4485 7.83415C53.9829 2.10278 45.7643 9.41313 43.8033 10.9921L43.2972 10.4025ZM17.1661 10.9516C15.5416 9.5523 13.8715 8.22131 12.08 7.10287C10.8047 6.35893 9.36493 5.45051 7.88719 5.63776C6.36391 6.0072 6.5132 8.04418 6.44235 9.31444C6.49802 12.5028 7.19387 15.643 7.85682 18.7681L7.42413 18.8971C6.62706 16.8778 6.17666 14.732 5.91097 12.5787C5.68577 10.3975 5.28597 8.06948 6.19943 5.96671C8.59569 2.17363 15.4935 8.54267 17.6721 10.362L17.1661 10.9516Z" fill="black"/>
<path d="M43.978 26.625C43.4567 26.7945 42.9532 27.04 42.4876 27.3284C41.0175 28.2444 39.8459 29.7171 38.3125 30.5218C38.2644 30.8179 38.2391 31.124 38.2366 31.4353C38.234 34.239 40.185 36.5163 42.5939 36.5189C45.0053 36.5239 46.9638 34.2542 46.9664 31.4505C46.9714 29.2009 45.7189 27.2955 43.978 26.625Z" fill="black"/>
<path d="M42.0221 31.4049C42.0753 32.0856 41.6477 32.6726 41.0657 32.7182C40.4862 32.7637 39.9725 32.2475 39.9219 31.5668C39.8688 30.8836 40.2964 30.2966 40.8759 30.251C41.4553 30.2055 41.969 30.7217 42.0221 31.4049Z" fill="white"/>
<path d="M16.9078 26.5844C17.4316 26.754 17.9326 27.002 18.3982 27.293C19.8659 28.2115 21.0324 29.6893 22.5658 30.499C22.6113 30.795 22.6366 31.1012 22.6366 31.4125C22.6315 34.2162 20.673 36.4859 18.2641 36.4834C15.8527 36.4783 13.9018 34.2035 13.9043 31.3998C13.9094 29.1528 15.167 27.2474 16.9078 26.5844Z" fill="black"/>
<path d="M18.8512 31.3695C18.798 32.0501 19.2231 32.6397 19.8026 32.6878C20.382 32.7334 20.8982 32.2197 20.9514 31.5365C21.007 30.8558 20.5794 30.2662 20 30.2207C19.4205 30.1726 18.9068 30.6888 18.8512 31.3695Z" fill="white"/>
<path d="M45.6378 26.7034C43.0264 26.8527 41.5538 29.1275 39.4789 30.4459C38.7223 30.9241 37.8164 31.2809 36.8979 31.2708L36.8144 30.7774C37.571 30.4762 38.2162 30.0587 38.8336 29.5451C40.6985 27.875 42.8974 25.7115 45.6631 26.043L45.6378 26.7034ZM15.2278 25.9949C19.0309 25.5394 20.9894 29.4388 24.0613 30.7571L23.9753 31.2505C20.3821 31.1974 18.7804 26.835 15.248 26.6579L15.2278 25.9949ZM34.1246 34.1858C33.8665 32.6423 31.8017 32.2273 30.4049 32.2399C29.0082 32.2501 26.9915 32.6752 26.7334 34.3022C26.5638 35.3776 27.6418 36.3772 28.6894 37.0755C29.7572 37.7917 31.1565 37.7891 32.2218 37.0654C33.1529 36.4354 34.1069 35.5649 34.1499 34.6312C34.1575 34.4718 34.1474 34.325 34.1246 34.1858Z" fill="black"/>
<path d="M32.5534 33.2673C32.5635 33.457 31.6171 33.5077 30.438 33.5152C29.2563 33.5203 28.3074 33.4773 28.315 33.29C28.32 33.1053 29.2664 32.8497 30.4329 32.8472C31.5969 32.8396 32.5458 33.0851 32.5534 33.2673Z" fill="#CCD6E9"/>
<path d="M40.9087 22.3866C41.3313 23.1204 40.6152 24.3274 39.3044 25.0814C37.9962 25.833 36.5919 25.8481 36.1693 25.1118C35.7442 24.378 36.4628 23.171 37.7736 22.4169C39.0818 21.6629 40.4861 21.6502 40.9087 22.3866ZM24.5979 24.9777C24.2108 25.7318 22.8064 25.7824 21.4628 25.089C20.1217 24.3982 19.3474 23.2266 19.7371 22.4701C20.1267 21.716 21.5286 21.6654 22.8722 22.3587C24.2133 23.0495 24.9876 24.2236 24.5979 24.9777Z" fill="white"/>
<path d="M35.9641 37.9334C36.9687 37.2628 38.6008 38.1434 38.535 39.3681L38.163 39.5098C37.414 38.8924 36.9459 38.652 36.0299 38.3281L35.9641 37.9334Z" fill="black"/>
<path d="M32.7785 40.2183C34.6763 40.5726 36.192 40.112 36.8777 38.1915L37.8317 38.5052C37.4116 40.8332 34.4081 42.2781 32.5989 40.5751L32.7785 40.2183Z" fill="black"/>
<path d="M7.29511 0C6.72324 0 6.18428 0.0784423 5.69338 0.235328C4.42061 0.635132 2.80623 1.77129 2.33052 4.89887C2.31787 4.9925 1.29813 12.8823 4.74955 21.1618C4.07141 22.7458 3.65137 24.4058 3.30724 25.8532C2.91504 27.6877 2.67465 29.5678 2.58356 31.4631C2.56331 31.954 2.55825 32.4449 2.55066 32.9181V32.9409C2.18376 33.4798 1.84722 34.0821 1.48285 34.8589C-0.387098 38.905 -0.493373 43.8545 1.19185 48.4396C1.24752 48.599 1.31837 48.7787 1.38922 48.9583C1.43224 49.0697 1.47526 49.1785 1.51574 49.2848C1.57647 49.4391 1.6625 49.6694 1.84216 49.8819C2.204 50.3273 2.71514 50.5753 3.27182 50.5753C3.65137 50.5753 4.01322 50.4563 4.31686 50.2514C4.55219 50.3678 4.81787 50.4336 5.09368 50.4336C5.39986 50.4336 5.69338 50.3551 5.94642 50.2185C6.02233 50.2817 6.10077 50.3501 6.18427 50.4184C11.703 54.758 19.6104 56.8962 30.3847 56.9747C36.617 56.9367 45.7466 56.332 53.1733 51.552C53.6717 51.2155 54.2664 50.7954 54.8534 50.2919C55.109 50.431 55.4025 50.512 55.7087 50.512C55.9744 50.512 56.235 50.4488 56.4678 50.3324C56.7664 50.5373 57.1308 50.6512 57.5103 50.6512C58.2947 50.6512 58.9931 50.1679 59.2563 49.4442C60.2355 47.058 60.7618 44.6794 60.8226 42.3768C60.9212 39.1075 60.0786 35.866 58.4516 33.2521C58.401 33.1711 58.3504 33.0977 58.2998 33.0244C58.2922 32.0147 58.2542 31.0253 58.1859 30.1473C57.9329 27.3284 57.3787 24.6968 56.5386 22.3131C56.3995 21.9311 56.2654 21.5844 56.1287 21.258C59.6055 13.0038 58.6161 5.07347 58.606 4.9925C58.1378 1.85226 56.526 0.713575 55.2557 0.30871C54.7598 0.151824 54.2132 0.0708514 53.6363 0.0708514C51.6651 0.0708514 49.1803 1.00963 46.2502 2.86189C43.9045 4.34471 41.5892 6.2324 40.1393 7.614C39.2891 7.2066 38.4085 6.84982 37.5103 6.55123C35.6302 5.92369 33.6793 5.54413 31.7005 5.42014V5.39736L30.8529 5.37459C30.7187 5.37206 30.5846 5.36953 30.4505 5.36953C27.1054 5.36953 23.7754 6.13118 20.782 7.57857C19.3346 6.19444 17.0294 4.30169 14.6914 2.81381C11.7562 0.946373 9.2688 0 7.29511 0ZM7.29511 0.862869C9.10179 0.862869 11.4272 1.76116 14.2283 3.54257C16.7865 5.16962 19.2739 7.26733 20.615 8.62616C23.6388 7.05731 27.0421 6.2324 30.4505 6.2324C30.5796 6.2324 30.7086 6.23493 30.8377 6.23746V6.24505C33.0113 6.30325 35.1747 6.68281 37.237 7.36855C38.2896 7.72028 39.3169 8.15298 40.3038 8.66159C41.6474 7.30782 44.1449 5.21264 46.7107 3.59318C49.5093 1.82442 51.8296 0.933721 53.6363 0.933721C54.1272 0.933721 54.5801 0.999511 54.9951 1.13109C56.5007 1.61187 57.4268 2.94793 57.7482 5.10383C57.7608 5.18987 58.7451 13.1025 55.1874 21.2605C55.3823 21.7008 55.5594 22.1487 55.7239 22.6016C56.5893 25.051 57.0928 27.627 57.3256 30.2131C57.4015 31.2176 57.4369 32.288 57.4395 33.2976C57.5407 33.4368 57.6292 33.5684 57.7178 33.7076C59.317 36.2759 60.0508 39.3428 59.9597 42.354C59.899 44.6895 59.3372 46.9821 58.4516 49.1355C58.3023 49.5581 57.9076 49.7883 57.5103 49.7883C57.2041 49.7883 56.898 49.6517 56.7031 49.3683C56.6449 49.2848 56.6019 49.1911 56.5715 49.0925C56.5665 49.1 56.5437 49.1254 56.5437 49.1254C56.4476 49.2342 56.3489 49.3683 56.2375 49.4594C56.0857 49.5884 55.8959 49.6466 55.7087 49.6466C55.3595 49.6466 55.0078 49.4391 54.8838 49.0899C54.2259 49.7453 53.4744 50.3071 52.7077 50.8258C46.1312 55.0566 38.0543 56.0637 30.3898 56.1118C22.4039 56.0536 13.1934 54.834 6.74096 49.7605C6.45755 49.5201 6.17921 49.2772 5.91859 49.0165C5.7946 49.3708 5.44288 49.5682 5.09368 49.5682C4.8533 49.5682 4.61038 49.4745 4.44591 49.2696C4.38012 49.1911 4.30927 49.1051 4.23336 49.0165C4.09925 49.4341 3.69439 49.7099 3.27182 49.7099C3.00107 49.7099 2.72273 49.596 2.50512 49.3303C2.41908 49.2291 2.37101 49.1026 2.32293 48.9811C2.22424 48.7104 2.09773 48.4118 2.00157 48.141C0.48082 44.0063 0.397318 39.2669 2.26473 35.2258C2.59368 34.5224 2.95299 33.8493 3.41099 33.2167C3.41858 32.6473 3.42111 32.0729 3.44641 31.5036C3.53245 29.6893 3.76777 27.8269 4.14733 26.0531C4.53953 24.3982 4.98235 22.7205 5.69085 21.1694C2.16605 13.0088 3.17313 5.10889 3.18325 5.02792C3.5122 2.86695 4.44338 1.53343 5.95148 1.05771C6.3614 0.92866 6.80928 0.862869 7.29511 0.862869ZM101.228 14.1349L90.061 30.0233L99.4664 46.9112L88.7148 48.8672L81.6728 38.5609L81.3034 49.3455L71.6652 49.7251L72.4066 13.1809L83.2012 13.8008L82.3687 24.5829L89.5499 13.1809L101.228 14.1349ZM164.449 13.5352L162.675 48.5737L152.116 49.1633L152.02 30.7014L147.399 45.6359L143.323 45.6815L139.527 32.4095L139.639 47.8677L128.938 48.3156L129.067 15.3469L140.97 14.7422L145.856 30.4813L151.987 13.6693L164.449 13.5352ZM182.754 34.907L181.337 26.5364L179.282 34.7552L182.754 34.907ZM196 46.6557L184.456 47.683L183.29 42.2351L178.012 42.0048L176.633 47.3414L164.876 45.6385L175.39 14.2917L188.287 14.1829L196 46.6557Z" fill="white"/>
<path d="M116.977 30.4788C116.977 29.7956 116.878 29.1301 116.686 28.4873C116.493 27.8421 116.21 27.2702 115.84 26.7692C115.468 26.2682 115.01 25.8633 114.461 25.5521C113.912 25.2434 113.285 25.0865 112.574 25.0865C111.847 25.0865 111.2 25.2231 110.628 25.4939C110.056 25.7646 109.565 26.1341 109.158 26.6022C108.748 27.0703 108.434 27.6194 108.219 28.2469C108.001 28.877 107.893 29.54 107.893 30.2409C107.893 30.9089 107.986 31.5744 108.173 32.2425C108.358 32.9105 108.636 33.5153 109.006 34.0568C109.375 34.5957 109.836 35.0335 110.385 35.3675C110.931 35.7015 111.569 35.8685 112.295 35.8685C113.022 35.8685 113.674 35.7218 114.254 35.4282C114.833 35.1347 115.322 34.7349 115.724 34.2364C116.126 33.7329 116.435 33.1585 116.65 32.5056C116.868 31.8553 116.977 31.1797 116.977 30.4788ZM127.263 29.8588C127.263 31.3062 127.101 32.7005 126.774 34.0441C126.45 35.3878 125.985 36.6479 125.375 37.8245C124.762 39.0012 124.021 40.0791 123.151 41.0584C122.278 42.0351 121.296 42.8752 120.208 43.5736C119.117 44.2746 117.933 44.8186 116.65 45.2083C115.37 45.598 114.011 45.7928 112.574 45.7928C111.185 45.7928 109.859 45.6106 108.601 45.2437C107.341 44.8793 106.164 44.3657 105.069 43.7052C103.97 43.0448 102.979 42.2502 102.09 41.319C101.202 40.3904 100.446 39.3554 99.8206 38.2193C99.1956 37.0831 98.7073 35.8609 98.3606 34.5578C98.014 33.2546 97.8394 31.8933 97.8394 30.4788C97.8394 29.0946 98.0013 27.7383 98.3252 26.4124C98.6491 25.0839 99.1172 23.8314 99.727 22.6547C100.337 21.4781 101.076 20.3951 101.941 19.4108C102.804 18.4239 103.773 17.5737 104.846 16.8576C105.921 16.1415 107.083 15.5848 108.335 15.1875C109.585 14.7902 110.906 14.5929 112.295 14.5929C114.535 14.5929 116.577 14.9497 118.424 15.6658C120.269 16.3793 121.845 17.4016 123.151 18.7301C124.454 20.0585 125.466 21.6654 126.185 23.548C126.903 25.4331 127.263 27.5359 127.263 29.8588Z" fill="white"/>
</svg>
