<svg width="256" height="243" viewBox="0 0 256 243" fill="none" xmlns="http://www.w3.org/2000/svg">
<path d="M256 182.01C256 156.186 248.296 144.718 246.235 143.2C246.235 125.906 243.468 114.759 243.176 112.611C242.887 110.483 239.907 99.161 236.184 91.0254C236.117 90.8793 236.139 90.7109 236.238 90.5839C241.854 83.4458 244.885 64.5031 246.524 54.9761C248.798 41.7578 248.122 32.1737 248.122 29.8293C248.122 24.5051 247.483 21.5476 245.908 17.0399C245.094 14.7145 243.722 11.9603 241.911 9.66673C239.389 6.47096 238.287 6.1247 236.254 4.58399C232.864 2.01403 230.596 0.136598 225.37 0C206.786 0 170.629 32.0752 168.558 33.8256C167.999 33.3554 144.135 23.3361 125.793 23.3361C107.451 23.3361 85.8428 32.9044 84.5371 33.6922C84.5054 33.7112 84.4672 33.7081 84.4355 33.6826C81.8846 31.5161 45.4477 0 26.9974 0C18.3822 0 13.1565 6.70286 10.4531 14.4508C8.88064 18.9586 8.5725 24.5909 8.5725 29.9151C8.5725 32.2595 8.50579 42.4281 10.7803 55.6464C12.429 65.2337 16.257 82.7215 20.5805 87.6327C20.6027 87.6581 20.609 87.6931 20.5932 87.7248C16.8288 95.8858 13.2137 109.832 11.584 121.233C10.1704 131.138 10.4277 139.118 10.4499 139.712C10.4499 139.734 10.4436 139.756 10.4277 139.775C10.0401 140.198 5.18295 145.649 2.19684 156.574C1.01828 160.881 -4.01998 189.373 6.81895 205.752C8.05469 207.601 8.8457 209.17 10.5834 211.032C10.5897 211.038 10.5929 211.041 10.5992 211.048C11.4982 211.683 12.0065 211.327 12.2067 211.108C12.2543 211.054 12.3401 211.07 12.3655 211.137C12.6387 211.839 13.8395 214.58 15.8789 214.58C17.4355 214.58 17.9438 212.287 18.0804 211.41C18.0994 211.292 18.2519 211.257 18.3186 211.356C18.9032 212.201 20.6758 214.704 22.9312 214.704C25.5584 214.704 26.0952 212.687 26.1969 212.064C26.2096 211.991 26.2985 211.966 26.3494 212.017C27.4676 213.164 35.889 221.429 53.1767 228.742C70.1212 235.909 102.857 242.195 125.79 242.195C148.723 242.195 179.667 240.855 207.533 228.742C225.691 221.061 234.179 212.325 234.583 211.899C234.589 211.893 234.599 211.896 234.599 211.906C234.624 212.169 234.834 214.704 237.778 214.704C240.244 214.704 242.191 211.381 242.582 210.835C242.604 210.803 242.651 210.816 242.655 210.854C242.728 211.442 243.106 214.58 244.828 214.58C247.08 214.58 248.309 211.232 248.395 210.991C248.395 210.984 248.408 210.991 248.408 210.991C248.408 210.991 255.813 196.565 255.987 182.019L256 182.01Z" fill="#010101"/>
<path d="M5.03682 185.285C6.0216 194.138 10.4753 208.999 12.0446 208.999C12.6514 208.999 9.85906 199.736 12.7816 199.736C14.0047 199.736 17.5086 204.386 18.3472 205.492C18.4362 205.609 18.6109 205.603 18.6903 205.479C19.1096 204.834 20.2628 203.052 21.184 203.052C22.3308 203.052 23.0011 203.449 23.3982 203.789C23.7953 204.129 48.6054 233.669 125.831 233.669C213.095 232.881 224.531 203.182 231.708 203.182C233.734 203.246 234.36 205.403 234.36 205.403C234.481 205.492 234.653 205.466 234.741 205.342C235.542 204.224 239.205 199.033 240.806 199.799C242.61 200.663 241.146 207.366 241.174 207.541C241.203 207.715 241.625 208.039 241.689 207.877C244.5 200.641 246.829 196.136 247.575 188.125C247.931 184.3 248.036 179.516 247.772 172.899C247.693 170.916 247.582 169.017 247.429 167.206C247.791 184.529 242.451 197.245 242.216 197.798C242.213 197.804 242.204 197.804 242.2 197.798C242.143 197.683 241.781 197.112 240.12 197.112C238.458 197.112 234.84 200.962 234.44 201.406C234.424 201.426 234.395 201.419 234.386 201.394C234.271 201.035 233.461 198.957 230.037 198.957C226.342 198.957 215.052 212.922 191.456 219.679C165.229 227.185 128.334 227.57 126.006 227.57C121.578 227.57 107.8 227.325 76.8146 223.513C45.8258 219.701 25.0437 198.795 21.9306 198.795C19.2812 198.795 18.649 200.812 18.5188 201.416C18.5061 201.476 18.4266 201.492 18.3885 201.441C18.1185 201.057 17.318 199.955 16.3554 198.96C15.1832 197.747 12.7372 196.057 10.901 197.544C10.8597 197.579 10.7962 197.572 10.7676 197.528C7.32723 192.464 5.85641 181.638 5.3386 170.341C4.7255 176.546 4.69056 182.133 5.04 185.288L5.03682 185.285Z" fill="#F4DABA"/>
<path d="M227.667 84.9165C227.095 83.3122 226.727 82.3656 226.676 82.2576C226.371 81.5809 225.675 80.5326 225.567 80.2435C225.459 79.9545 225.653 79.7416 225.824 79.7416C225.926 79.7416 226.113 79.9449 226.339 80.2658C227.483 78.2867 234.014 66.4788 235.958 52.5045C237.801 39.2576 239.027 23.4471 237.105 13.6819C236.863 13.053 236.603 12.443 236.32 11.8553C233.156 7.19193 228.277 4.79669 220.843 7.57948C198.66 15.8866 180.261 33.5459 175.391 38.4603L179.826 41.8911C180.191 42.1738 180.702 42.1739 181.065 41.8879C182.269 40.9413 185.185 38.6604 189.362 35.4456C191.49 33.8096 194.515 31.0109 197.599 28.8221C210.042 19.9941 218.242 15.7627 224.84 17.9006C231.336 20.7088 232.003 27.4371 232.035 36.4272C232.092 52.7046 226.946 72.4924 226.383 74.5509C226.355 74.6589 226.037 75.7231 225.659 76.2758C225.281 76.8286 224.881 77.4131 224.881 77.4131C224.741 77.6164 224.179 77.7879 223.521 77.699C223.435 77.6895 223.34 77.6704 223.229 77.645C223.223 77.645 223.219 77.645 223.216 77.6418C222.749 77.5211 222.26 77.2574 221.853 76.7777C216.641 70.6022 208.95 64.881 207.419 63.7659C207.304 63.6833 207.222 63.623 207.18 63.5944C207.155 63.5785 207.133 63.5626 207.107 63.5467C206.799 63.3657 204.642 62.1204 201.856 60.926C198.845 59.6362 196.802 59.56 196.802 58.1463C196.802 56.7327 200.287 55.8305 200.287 54.4169C200.287 53.0033 198.231 52.9334 197.431 52.9334C196.63 52.9334 195.963 53.3908 194.979 53.3908C193.994 53.3908 193.422 52.8984 193.422 51.7294C193.422 50.8494 194.521 48.5082 195.058 46.9135C192.942 45.0106 183.222 47.66 181.655 48.1048C181.49 48.1524 181.319 48.1683 181.147 48.1651C180.629 48.1588 179.597 48.0698 179.149 47.3837C178.99 47.139 178.726 46.9262 178.476 46.7801C170.153 41.9261 151.019 30.617 126.073 30.617C103.108 30.617 80.2612 43.3746 75.9949 45.8747C75.6232 46.0907 75.3341 46.4084 75.1118 46.7769C74.7941 47.3074 73.8983 48.0984 71.3664 48.1778C71.0996 48.1874 70.8423 48.1175 70.5945 48.0126C64.0028 45.2076 60.5561 45.8366 59.0726 46.4688C58.7263 46.6149 58.3546 46.6498 57.9988 46.5831C58.523 48.2318 59.9875 51.021 59.9875 51.9295C59.9875 53.035 59.0027 53.5274 58.2244 53.5274C57.4461 53.5274 56.7091 52.873 55.7656 52.873C53.7579 52.873 52.9383 53.861 52.7446 54.4804C52.662 54.7504 52.789 55.0395 53.0432 55.1602C54.5871 55.9036 60.051 58.8007 51.8265 60.4939C51.7503 60.5098 51.6708 60.5352 51.5978 60.567C49.5107 61.5232 47.5093 62.6573 45.6001 63.9184C39.7899 67.7559 34.8375 72.7687 30.9333 77.5465C30.6887 77.8483 29.4593 77.4989 29.2179 77.7625C29.2179 77.7625 29.1448 77.7721 29.0781 77.7117C29.0114 77.6545 28.8112 77.6037 28.7699 77.5306C25.3582 71.6029 22.2672 55.0427 21.203 41.2844C19.8974 24.3906 24.2812 17.3479 32.3533 17.3479C42.4679 17.3479 66.2837 37.5803 71.8398 41.6592C72.3385 42.0245 73.0151 42.0245 73.5075 41.656C74.4415 40.9572 76.0425 39.7659 77.5832 38.6128C71.4586 32.9264 43.818 8.06235 27.8678 7.05533C22.9724 6.74719 19.656 8.31966 17.4164 10.7689C17.3306 10.9055 17.2417 11.0389 17.1591 11.1787C15.3547 20.0195 15.3071 35.4233 16.0504 45.9001C17.0352 59.7347 23.684 73.3977 25.4058 76.5967C26.4446 78.5218 26.7972 79.6654 26.8703 80.2372C27.0799 79.9417 27.3182 79.5987 27.5151 79.3286C27.5151 79.3286 27.2769 80.2531 27.0386 80.7804C26.4859 82.0003 26.0094 83.1597 25.5742 84.2907C24.1605 89.0621 21.3841 103.036 19.0238 117.691C17.8357 125.057 16.781 132.599 15.9996 139.222C20.2881 136.303 29.8786 131.233 44.7933 131.233C65.7405 131.233 78.6729 151.646 78.6729 151.646C78.6729 151.646 92.9998 131.389 126.079 131.389C159.158 131.389 177.03 151.646 177.03 151.646C177.03 151.646 180.944 131.233 209.842 131.233C222.085 131.233 230.799 134.804 236.778 138.921C236.301 134.657 235.694 128.288 234.799 121.614C232.842 106.988 229.741 92.1308 227.664 84.9165H227.667Z" fill="url(#paint0_linear_243_15609)"/>
<path d="M26 23.3932C25.1932 24.6353 24.5928 26.4111 24.345 28.9715C23.6683 35.9794 24.5292 45.8208 24.5292 47.5394C24.5292 49.258 26.9276 64.9382 26.9276 64.9382L29.1831 77.8039C29.4214 77.5402 30.7333 77.842 30.978 77.5402C34.8821 72.7625 39.7616 67.7814 45.5718 63.9439C45.5718 63.9439 47.77 58.6674 51.2136 57.6223C49.4918 55.9005 49.7904 54.1692 49.7904 54.1692C49.7904 54.1692 50.394 49.6424 55.842 49.6297C55.8548 49.6297 55.8611 49.617 55.8548 49.6074C55.0606 48.3939 54.5841 46.3386 54.5428 45.4682C54.5332 45.2426 54.7334 44.3913 54.816 44.1848C55.0828 43.5209 55.3401 41.8118 57.764 40.9096C57.8847 40.8651 58.0149 40.827 58.1483 40.7889C52.7543 36.3574 38.9705 25.3342 33.8751 24.0953C30.0408 23.1613 27.5376 23.1994 25.9969 23.3996L26 23.3932Z" fill="white"/>
<path d="M63.7806 40.284C57.3065 35.4681 45.6988 26.6305 41.1815 24.2511C36.6325 21.8527 34.3579 20.3152 31.3432 20.563C29.4309 20.7186 27.3946 21.2491 25.9873 23.4093C27.5312 23.2123 30.0344 23.1711 33.8655 24.105C38.961 25.3471 52.7447 36.3703 58.1388 40.7986C59.4793 40.4333 61.5919 40.4047 63.7393 40.3888C63.7965 40.3888 63.8251 40.3158 63.7806 40.284Z" fill="#F4DABA"/>
<path d="M221.793 76.7747C222.2 77.2576 222.689 77.5181 223.156 77.6388C223.162 77.6388 223.166 77.6388 223.169 77.642C223.267 77.6674 223.363 77.6833 223.461 77.696C223.668 77.7151 223.801 77.6769 223.83 77.553C224.697 73.8363 226.355 63.3373 227.724 54.7506C229.046 46.4594 229.144 30.9857 229.144 30.6902C229.144 30.5028 229.071 26.4176 227 23.495C225.427 23.0916 223.385 23.0217 220.751 23.6602C213.61 25.3915 199.721 36.8848 195.357 40.6111C196.202 40.8557 196.951 41.2528 197.472 41.8786C197.472 41.8786 197.472 41.8786 197.476 41.8818C198.756 43.7274 198.975 45.9289 197.145 49.3947C197.104 49.4709 197.158 49.5631 197.247 49.5662C201.211 49.6425 203.543 52.0758 203.543 54.0931C203.543 55.961 201.78 57.3778 201.491 57.6097C201.472 57.6256 201.475 57.6573 201.497 57.6668C201.831 57.832 203.883 58.7882 205.081 59.9827C206.053 60.9547 206.818 62.4256 207.365 63.7534C208.896 64.8684 216.587 70.5865 221.8 76.7652L221.793 76.7747Z" fill="white"/>
<path d="M221.247 20.5725C213.006 20.5725 191.449 38.4383 189.003 40.4936C188.943 40.5445 188.99 40.643 189.067 40.6302C189.994 40.4587 193.031 39.9504 195.353 40.6207C199.721 36.8944 213.607 25.4011 220.748 23.6698C223.378 23.0313 225.424 23.1043 226.997 23.5046C225.831 21.8559 224.03 20.5757 221.244 20.5757L221.247 20.5725Z" fill="#F4DABA"/>
<path d="M10.9011 197.544C12.7372 196.06 15.1833 197.75 16.3555 198.96C17.318 199.955 18.1185 201.057 18.3886 201.441C18.4235 201.492 18.5029 201.476 18.5188 201.416C18.649 200.812 19.2812 198.795 21.9306 198.795C25.0469 198.795 45.829 219.701 76.8146 223.513C107.803 227.325 121.581 227.57 126.006 227.57C128.338 227.57 165.229 227.185 191.456 219.679C215.052 212.925 226.342 198.957 230.037 198.957C233.461 198.957 234.271 201.035 234.386 201.394C234.392 201.416 234.421 201.422 234.44 201.406C234.84 200.965 238.382 197.112 240.12 197.112C241.857 197.112 242.146 197.687 242.2 197.798C242.204 197.804 242.213 197.807 242.216 197.798C242.451 197.245 247.791 184.529 247.429 167.206C247.035 162.473 246.371 158.352 245.32 154.972C242.458 145.789 238.099 141.541 238.099 141.541C238.099 141.541 237.594 141.046 237.839 139.635C231.848 135.21 222.791 131.208 209.798 131.208C180.899 131.208 176.967 151.643 176.967 151.643C176.967 151.643 159.095 131.385 126.015 131.385C92.9364 131.385 78.6094 151.643 78.6094 151.643C78.6094 151.643 65.677 131.23 44.7298 131.23C28.9988 131.23 19.2431 136.818 15.3326 139.626C15.3675 140.007 15.3484 140.436 15.3961 140.795C15.4406 141.132 15.3198 141.471 15.0594 141.691C9.29681 146.513 6.40919 159.385 5.32275 170.335C5.84056 181.631 7.31137 192.458 10.7517 197.521C10.7835 197.566 10.8439 197.572 10.8852 197.537L10.9011 197.544Z" fill="white"/>
<path d="M125.993 137.856C133.341 137.856 140.832 138.022 141.076 145.481C141.61 150.103 132.941 161.139 126.073 161.139C118.706 160.802 111.727 148.857 111.727 145.604C111.727 142.352 112.588 137.653 125.99 137.856H125.993Z" fill="#F3D9BA"/>
<path d="M125.993 136.268C133.341 136.268 140.832 136.433 141.076 143.892C141.61 148.514 132.941 159.55 126.073 159.55C118.706 159.213 111.727 147.269 111.727 144.016C111.727 140.763 112.588 136.065 125.99 136.268H125.993Z" fill="#010101"/>
<path d="M93.7721 126.449C93.6006 126.322 93.4258 126.189 93.2511 126.052C90.3794 123.812 86.8596 120.197 85.4396 119.041C84.1626 117.999 78.2571 112.751 73.905 110.394C73.1299 109.975 71.4398 109.355 70.7981 109.158C69.0319 108.577 66.2491 108.253 64.4416 108.558C63.1042 108.85 62.1607 109.514 61.5857 110.044C61.9764 109.854 62.4784 109.708 63.1359 109.625C64.2287 109.489 66.7034 110.245 69.3877 111.299C72.7486 112.621 76.4463 114.406 78.1872 115.502C80.881 117.192 89.6551 125.137 93.6514 128.075C94.3058 128.555 94.8363 128.908 95.1857 129.073C96.4596 129.67 97.1966 130.061 97.7875 130.41C97.7875 130.41 96.7201 128.635 93.7689 126.452L93.7721 126.449Z" fill="#FEC881"/>
<path d="M55.35 132.075C54.721 144.693 61.3635 154.366 74.0576 154.194C84.7218 154.048 93.5277 144.261 93.5277 132.262C93.5277 131.849 55.7471 124.108 55.35 132.078V132.075Z" fill="#F3D9B9"/>
<path d="M99.4745 131.471C98.8105 131.052 98.3721 130.75 97.794 130.407C97.2031 130.058 96.4693 129.667 95.1923 129.07C94.8428 128.905 94.3123 128.555 93.6579 128.072C89.6616 125.131 80.8907 117.189 78.1937 115.499C76.4497 114.406 72.7552 112.618 69.3942 111.296C66.7067 110.241 64.2352 109.485 63.1424 109.622C62.4849 109.705 61.9798 109.851 61.5922 110.041C60.7186 110.467 60.4232 111.105 60.2834 111.703C60.2358 111.912 60.3851 112.313 60.5979 112.348C61.3 112.462 62.99 112.748 65.1819 113.345C59.359 117.122 55.3468 124.092 55.3468 132.072C55.3468 144.073 63.3871 154.191 74.0544 154.191C84.7218 154.191 93.9756 144.073 93.9756 132.072C93.9756 131.659 93.9629 131.246 93.9438 130.839C95.5862 131.293 97.3969 131.528 99.4713 131.49C99.4808 131.49 99.484 131.478 99.4745 131.471Z" fill="#010101"/>
<path d="M85.3066 133.882C85.5117 130.866 83.4927 128.272 80.7971 128.089C78.1015 127.906 75.75 130.202 75.5449 133.218C75.3398 136.234 77.3588 138.827 80.0545 139.011C82.7501 139.194 85.1016 136.898 85.3066 133.882Z" fill="white"/>
<path d="M197.682 132.075C198.311 144.693 191.669 154.366 178.975 154.194C168.31 154.048 159.505 144.261 159.505 132.262C159.505 131.849 197.285 124.108 197.682 132.078V132.075Z" fill="#F3D9B9"/>
<path d="M159.215 126.449C159.387 126.322 159.562 126.189 159.736 126.052C162.608 123.812 166.128 120.197 167.548 119.041C168.825 117.999 174.73 112.751 179.082 110.394C179.858 109.975 181.548 109.355 182.189 109.158C183.956 108.577 186.738 108.253 188.546 108.558C189.883 108.85 190.827 109.514 191.402 110.044C191.011 109.854 190.509 109.708 189.851 109.625C188.759 109.489 186.284 110.245 183.6 111.299C180.239 112.621 176.541 114.406 174.8 115.502C172.106 117.192 163.332 125.137 159.336 128.075C158.682 128.555 158.151 128.908 157.802 129.073C156.528 129.67 155.791 130.061 155.2 130.41C155.2 130.41 156.267 128.635 159.218 126.452L159.215 126.449Z" fill="#FEC881"/>
<path d="M153.513 131.471C154.177 131.052 154.616 130.75 155.194 130.407C155.785 130.058 156.518 129.667 157.795 129.07C158.145 128.905 158.675 128.555 159.33 128.072C163.326 125.131 172.097 117.189 174.794 115.499C176.538 114.406 180.232 112.618 183.593 111.296C186.281 110.241 188.752 109.485 189.845 109.622C190.503 109.705 191.008 109.851 191.395 110.041C192.269 110.467 192.564 111.105 192.704 111.703C192.752 111.912 192.603 112.313 192.39 112.348C191.688 112.462 189.998 112.748 187.806 113.345C193.629 117.122 197.641 124.092 197.641 132.072C197.641 144.073 189.601 154.191 178.933 154.191C168.266 154.191 159.012 144.073 159.012 132.072C159.012 131.659 159.025 131.246 159.044 130.839C157.401 131.293 155.591 131.528 153.516 131.49C153.507 131.49 153.504 131.478 153.513 131.471Z" fill="#010101"/>
<path d="M172.963 138.657C175.658 138.473 177.677 135.88 177.472 132.864C177.267 129.848 174.915 127.552 172.22 127.735C169.524 127.918 167.505 130.512 167.71 133.528C167.915 136.544 170.267 138.84 172.963 138.657Z" fill="white"/>
<path d="M89.1436 103.132C86.8341 101.47 84.9217 99.3293 84.1307 97.7727C84.1307 97.8108 84.1244 97.8458 84.1244 97.8871C84.1244 104.698 96.3674 107.16 96.4182 107.169C96.2499 107.141 96.0879 107.084 95.9386 106.998C95.0173 106.474 91.8629 105.082 89.1468 103.129L89.1436 103.132Z" fill="#F4DABA"/>
<path d="M89.8996 94.1355C87.4758 94.1355 85.2235 94.8916 84.4262 96.5244C84.2451 96.8961 84.1434 97.3122 84.1276 97.7728C84.9186 99.3294 86.8309 101.471 89.1404 103.132C91.8565 105.086 95.011 106.477 95.9322 107.001C96.0815 107.087 96.2435 107.144 96.4119 107.173C96.4691 107.182 96.5263 107.189 96.5834 107.192C97.0885 107.214 98.1051 107.252 99.4075 107.252C101.282 107.252 102.39 105.934 102.403 105.918C97.4888 96.8421 92.8445 94.1387 89.8965 94.1387L89.8996 94.1355Z" fill="white"/>
<path d="M93.4321 92.906C93.4321 92.906 86.9453 89.4624 82.7044 92.906C78.4635 96.3495 82.2755 101.575 82.2755 101.575C82.2755 101.575 86.6816 108.119 96.4151 107.169C96.3642 107.16 84.1212 104.698 84.1212 97.887C84.1212 97.8489 84.1275 97.8108 84.1275 97.7727C84.1434 97.3121 84.2451 96.8927 84.4262 96.5242C85.2235 94.8914 87.4758 94.1354 89.8996 94.1354C92.8476 94.1354 97.492 96.8419 102.406 105.915C102.521 106.124 102.635 106.337 102.749 106.556C100.72 96.0414 93.4353 92.906 93.4353 92.906H93.4321Z" fill="#010101"/>
<path d="M164.19 103.132C166.5 101.47 168.412 99.3293 169.203 97.7727C169.203 97.8108 169.209 97.8458 169.209 97.8871C169.209 104.698 156.966 107.16 156.915 107.169C157.084 107.141 157.246 107.084 157.395 106.998C158.316 106.474 161.471 105.082 164.187 103.129L164.19 103.132Z" fill="#F4DABA"/>
<path d="M163.434 94.1355C165.858 94.1355 168.11 94.8916 168.908 96.5244C169.089 96.8961 169.19 97.3122 169.206 97.7728C168.415 99.3294 166.503 101.471 164.193 103.132C161.477 105.086 158.323 106.477 157.401 107.001C157.252 107.087 157.09 107.144 156.922 107.173C156.865 107.182 156.807 107.189 156.75 107.192C156.245 107.214 155.229 107.252 153.926 107.252C152.052 107.252 150.943 105.934 150.931 105.918C155.845 96.8421 160.489 94.1387 163.437 94.1387L163.434 94.1355Z" fill="white"/>
<path d="M159.902 92.906C159.902 92.906 166.388 89.4624 170.629 92.906C174.87 96.3495 171.058 101.575 171.058 101.575C171.058 101.575 166.652 108.119 156.919 107.169C156.969 107.16 169.212 104.698 169.212 97.887C169.212 97.8489 169.206 97.8108 169.206 97.7727C169.19 97.3121 169.089 96.8927 168.907 96.5242C168.11 94.8914 165.858 94.1354 163.434 94.1354C160.486 94.1354 155.842 96.8419 150.927 105.915C150.813 106.124 150.699 106.337 150.584 106.556C152.614 96.0414 159.898 92.906 159.898 92.906H159.902Z" fill="#010101"/>
<path d="M134.907 169.878C134.907 169.878 138.964 170.983 142.102 170.983C145.241 170.983 151.27 168.162 152.725 162.743C152.741 162.682 152.697 162.619 152.636 162.613C151.032 162.447 149.844 162.568 149.545 162.466C149.409 162.419 149.339 162.269 149.393 162.136C149.644 161.478 150.768 159.388 153.783 159.388C157.427 159.388 160.527 162.19 160.527 165.186C160.527 168.181 159.758 167.212 159.758 167.212L156.76 164.223C156.731 164.198 156.687 164.207 156.671 164.242C156.315 165.154 152.643 174.239 143.249 174.239C136.518 173.779 134.913 169.878 134.913 169.878H134.907Z" fill="#010101"/>
<path d="M27.8742 7.05544C43.8245 8.06245 71.4587 32.9234 77.5834 38.6097C78.1869 38.1554 78.7842 37.7075 79.3274 37.2977C79.9691 36.8148 80.0104 35.865 79.4132 35.3313C59.4952 17.5449 37.1756 4.34253 27.4485 4.34253C23.0964 4.34253 19.7609 7.05544 17.4197 10.769C19.6593 8.31659 22.9757 6.74412 27.871 7.05544H27.8742Z" fill="#FEC881"/>
<path d="M16.1109 45.9128C15.3643 35.4329 15.3612 20.0195 17.1687 11.1787C15.1642 14.527 13.9443 18.6154 13.506 22.2654C12.5561 30.1945 13.8935 42.9998 15.2849 53.6545C16.6064 63.766 22.4643 83.7506 23.0488 85.7805C23.0679 85.8441 23.1504 85.8536 23.1854 85.7996C23.5793 85.1293 25.3678 82.3719 26.9148 80.1832C26.8418 79.6114 26.5464 78.5091 25.5107 76.584C23.789 73.3882 17.0988 59.7474 16.114 45.9128H16.1109Z" fill="#D4803A"/>
<path d="M225.675 4.34253C210.09 4.34253 179.292 30.5758 173.593 35.5505C173.113 35.9667 173.139 36.7164 173.641 37.1071L175.388 38.4604C180.261 33.5492 198.667 16.0074 220.85 7.70031C228.283 4.91751 233.153 7.19204 236.317 11.8554C234.217 7.48429 230.891 4.3457 225.672 4.3457L225.675 4.34253Z" fill="#FEC881"/>
<path d="M230.631 84.0843C230.631 84.0843 234.77 68.7599 236.733 59.6142C238.697 50.4684 239.5 38.4986 239.5 38.4986C239.507 38.4636 239.513 38.4319 239.516 38.3937C239.605 37.428 240.828 23.4251 237.108 13.679C239.03 23.4473 237.801 39.2578 235.961 52.5015C234.017 66.4759 227.48 78.2742 226.336 80.2564C226.968 81.1554 227.978 83.0392 228.779 84.402C229.891 86.2922 229.961 86.6289 230.634 84.0843H230.631Z" fill="#D4803A"/>
<path d="M22.766 92.5883C21.6796 95.873 20.5805 99.4977 19.691 103.656C16.9844 116.312 14.5034 130.639 15.3484 139.689C15.5517 139.543 15.7741 139.388 16.0092 139.229C16.8161 132.361 17.9629 124.508 19.1986 116.884C21.5303 102.528 24.1956 88.9764 25.5838 84.2939C24.4973 87.1244 23.7 89.7579 22.7629 92.5883H22.766Z" fill="#D4803A"/>
<path d="M237.864 139.569C237.874 139.524 237.88 139.48 237.883 139.435C239.113 119.178 230.631 93.208 227.67 84.9199C229.748 92.1374 232.74 107.278 234.7 121.903C235.593 128.574 236.308 134.661 236.784 138.927C237.149 139.178 237.505 139.429 237.848 139.683C237.855 139.645 237.861 139.61 237.867 139.569H237.864Z" fill="#D4803A"/>
<path d="M59.0663 46.6055C60.5467 45.9733 63.9902 45.2236 70.5819 48.0287C70.8297 48.1335 71.2268 48.197 71.4936 48.1907C74.0254 48.1113 74.8577 47.2567 75.1754 46.7262C75.3946 46.3577 75.6233 46.0909 75.9918 45.8748C80.2581 43.378 103.086 30.6775 126.05 30.6775C150.997 30.6775 170.156 41.9675 178.479 46.8215C178.73 46.9676 178.962 47.1519 179.12 47.3965C179.568 48.0827 180.633 48.1843 181.15 48.1907C181.322 48.1907 181.49 48.1684 181.659 48.1208C183.225 47.676 192.933 45.0203 195.049 46.9232C195.223 46.4022 195.341 45.9606 195.341 45.6747C195.341 44.5057 193.467 43.3398 191.58 43.3398C189.693 43.3398 181.046 46.885 180.779 46.885C180.512 46.885 179.946 46.866 178.927 45.5667C178.879 45.5032 178.822 45.446 178.762 45.3952C163.043 32.7201 141.778 29.0288 131.781 27.9646C128.191 27.5834 124.573 27.577 120.987 27.9646C100.313 30.2137 81.8274 38.7273 74.7148 45.0902C73.7268 45.9733 73.0851 47.0534 72.3259 47.0534C71.2617 47.0534 63.3898 43.486 61.4234 43.486C59.4571 43.486 57.8179 44.4707 57.8179 45.7001C57.8179 45.9193 57.8878 46.2275 58.0021 46.5833C58.3547 46.65 58.7232 46.7516 59.0663 46.6055Z" fill="#FEC881"/>
<path d="M135.879 140.134C135.758 140.824 133.592 140.83 131.946 140.858C130.301 140.89 128.477 140.607 127.832 140.598C127.188 140.588 124.265 140.639 122.74 140.795C121.215 140.951 116.901 140.89 116.838 140.776C116.6 140.357 119.322 137.796 128.176 137.964C134.135 138.076 136.003 139.448 135.882 140.137L135.879 140.134Z" fill="white"/>
<defs>
<linearGradient id="paint0_linear_243_15609" x1="126.838" y1="5.18742" x2="126.838" y2="127.961" gradientUnits="userSpaceOnUse">
<stop stop-color="#F7AA42"/>
<stop offset="1" stop-color="#F7AA42"/>
</linearGradient>
</defs>
</svg>
