<svg width="20" height="21" viewBox="0 0 20 21" fill="none" xmlns="http://www.w3.org/2000/svg">
<path d="M7.49967 13H3.33301V17.1667" stroke="white" stroke-width="2" stroke-linecap="round"/>
<path d="M16.1813 12.9973C15.7141 14.1538 14.9318 15.156 13.9234 15.89C12.915 16.624 11.7208 17.0604 10.4768 17.1496C9.23268 17.2387 7.98853 16.9771 6.88572 16.3945C5.78292 15.8118 4.86569 14.9314 4.23828 13.8534" stroke="white" stroke-width="2" stroke-linecap="round" stroke-linejoin="round"/>
<path d="M12.5 8.00001H16.6667V3.83334" stroke="white" stroke-width="2" stroke-linecap="round"/>
<path d="M3.81836 8.00264C4.2856 6.84618 5.06789 5.844 6.07631 5.10999C7.08474 4.37598 8.27885 3.93958 9.52294 3.85041C10.767 3.76123 12.0112 4.02285 13.114 4.60552C14.2168 5.1882 15.134 6.06856 15.7614 7.14655" stroke="white" stroke-width="2" stroke-linecap="round" stroke-linejoin="round"/>
</svg>
