<svg width="30" height="30" viewBox="0 0 30 30" fill="none" xmlns="http://www.w3.org/2000/svg">
<path d="M15 29C22.732 29 29 22.732 29 15C29 7.26801 22.732 1 15 1C7.26801 1 1 7.26801 1 15C1 22.732 7.26801 29 15 29Z" fill="#F5F5F5"/>
<path d="M22.4874 10.0361C22.6042 9.3457 21.8863 8.80076 21.2149 9.07028L7.84202 14.4384C7.36053 14.6317 7.39575 15.2985 7.89513 15.4439L10.6529 16.2469C11.1793 16.4001 11.7492 16.3209 12.2089 16.0305L18.4265 12.1031C18.614 11.9847 18.8184 12.2284 18.6582 12.3794L14.1826 16.5982C13.7484 17.0075 13.8346 17.701 14.3569 18.0004L19.3678 20.8734C19.9298 21.1956 20.6528 20.8719 20.7579 20.2509L22.4874 10.0361Z" fill="#0292ED"/>
</svg>
