<svg width="18" height="18" viewBox="0 0 18 18" fill="none" xmlns="http://www.w3.org/2000/svg">
<path d="M8.06572 2.59409C8.60409 2.1353 9.39591 2.1353 9.93428 2.59409L10.85 3.37447C11.0807 3.57107 11.3676 3.68989 11.6697 3.714L12.869 3.8097C13.5741 3.86597 14.134 4.42588 14.1903 5.13098L14.286 6.3303C14.3101 6.63245 14.4289 6.91929 14.6255 7.15L15.4059 8.06572C15.8647 8.60409 15.8647 9.39591 15.4059 9.93428L14.6255 10.85C14.4289 11.0807 14.3101 11.3676 14.286 11.6697L14.1903 12.869C14.134 13.5741 13.5741 14.134 12.869 14.1903L11.6697 14.286C11.3676 14.3101 11.0807 14.4289 10.85 14.6255L9.93428 15.4059C9.39591 15.8647 8.60409 15.8647 8.06572 15.4059L7.15 14.6255C6.91929 14.4289 6.63245 14.3101 6.3303 14.286L5.13098 14.1903C4.42588 14.134 3.86597 13.5741 3.8097 12.869L3.714 11.6697C3.68989 11.3676 3.57107 11.0807 3.37447 10.85L2.59409 9.93428C2.1353 9.39591 2.1353 8.60409 2.59409 8.06572L3.37447 7.15C3.57107 6.91929 3.68989 6.63245 3.714 6.3303L3.8097 5.13098C3.86597 4.42588 4.42588 3.86597 5.13098 3.8097L6.3303 3.714C6.63245 3.68989 6.91929 3.57107 7.15 3.37447L8.06572 2.59409Z" stroke="#60BF20" stroke-linecap="round" stroke-linejoin="round"/>
<path d="M11.25 7.5L8.25 10.5L6.75 9" stroke="#60BF20" stroke-linecap="round" stroke-linejoin="round"/>
</svg>
